<svg width="143" height="27" viewBox="0 0 143 27" fill="none" xmlns="http://www.w3.org/2000/svg">
<rect x="125.513" width="7.76336" height="9.20102" fill="#2862FA"/>
<rect x="142.478" y="9.20117" width="7.76336" height="9.20102" transform="rotate(90 142.478 9.20117)" fill="#2862FA"/>
<rect x="125.514" y="9.20117" width="7.76336" height="9.20102" transform="rotate(90 125.514 9.20117)" fill="#2862FA"/>
<rect x="125.514" y="16.9644" width="7.76336" height="9.20102" fill="#2862FA"/>
<path d="M14.2262 2.83887V6.56871H4.62105V12.4771H11.9817V16.1409H4.62105V25.8781H0V2.83887H14.2262Z" fill="white"/>
<path d="M22.124 7.59195V25.8781H17.503V7.59195H22.124Z" fill="white"/>
<path d="M36.823 7.32789C39.0014 7.32789 40.7619 8.02104 42.1042 9.40736C43.4465 10.7717 44.1176 12.6861 44.1176 15.1507V25.8781H39.4966V15.7778C39.4966 14.3255 39.1335 13.2142 38.4073 12.444C37.6812 11.6519 36.6909 11.2558 35.4366 11.2558C34.1604 11.2558 33.1481 11.6519 32.4 12.444C31.6738 13.2142 31.3107 14.3255 31.3107 15.7778V25.8781H26.6897V7.59195H31.3107V9.86946C31.9268 9.07728 32.708 8.46114 33.6542 8.02104C34.6225 7.55894 35.6787 7.32789 36.823 7.32789Z" fill="white"/>
<path d="M47.3237 16.669C47.3237 14.8206 47.6868 13.1812 48.413 11.7509C49.1611 10.3206 50.1624 9.22032 51.4167 8.45014C52.6929 7.67997 54.1123 7.29488 55.6746 7.29488C57.0389 7.29488 58.2272 7.56994 59.2394 8.12007C60.2737 8.67019 61.0989 9.36335 61.715 10.1995V7.59195H66.369V25.8781H61.715V23.2045C61.1209 24.0627 60.2957 24.7778 59.2394 25.35C58.2052 25.9001 57.0059 26.1752 55.6416 26.1752C54.1013 26.1752 52.6929 25.7791 51.4167 24.9869C50.1624 24.1947 49.1611 23.0835 48.413 21.6531C47.6868 20.2008 47.3237 18.5394 47.3237 16.669ZM61.715 16.735C61.715 15.6128 61.4949 14.6556 61.0548 13.8634C60.6147 13.0492 60.0206 12.433 59.2724 12.015C58.5243 11.5749 57.7211 11.3548 56.8629 11.3548C56.0047 11.3548 55.2125 11.5638 54.4864 11.9819C53.7602 12.4 53.1661 13.0162 52.7039 13.8304C52.2639 14.6225 52.0438 15.5688 52.0438 16.669C52.0438 17.7693 52.2639 18.7375 52.7039 19.5737C53.1661 20.3879 53.7602 21.015 54.4864 21.4551C55.2345 21.8952 56.0267 22.1152 56.8629 22.1152C57.7211 22.1152 58.5243 21.9062 59.2724 21.4881C60.0206 21.048 60.6147 20.4319 61.0548 19.6397C61.4949 18.8255 61.715 17.8573 61.715 16.735Z" fill="white"/>
<path d="M81.0156 7.32789C83.1941 7.32789 84.9545 8.02104 86.2968 9.40736C87.6391 10.7717 88.3103 12.6861 88.3103 15.1507V25.8781H83.6892V15.7778C83.6892 14.3255 83.3261 13.2142 82.6 12.444C81.8738 11.6519 80.8836 11.2558 79.6293 11.2558C78.353 11.2558 77.3408 11.6519 76.5926 12.444C75.8664 13.2142 75.5034 14.3255 75.5034 15.7778V25.8781H70.8823V7.59195H75.5034V9.86946C76.1195 9.07728 76.9007 8.46114 77.8469 8.02104C78.8151 7.55894 79.8714 7.32789 81.0156 7.32789Z" fill="white"/>
<path d="M91.5164 16.735C91.5164 14.8426 91.9015 13.1922 92.6716 11.7839C93.4418 10.3536 94.5091 9.25332 95.8734 8.48315C97.2377 7.69097 98.8 7.29488 100.56 7.29488C102.827 7.29488 104.697 7.86701 106.172 9.01127C107.668 10.1335 108.669 11.7179 109.175 13.7643H104.191C103.927 12.9722 103.476 12.356 102.838 11.9159C102.222 11.4538 101.452 11.2228 100.527 11.2228C99.2071 11.2228 98.1619 11.7069 97.3917 12.6751C96.6215 13.6213 96.2365 14.9746 96.2365 16.735C96.2365 18.4734 96.6215 19.8267 97.3917 20.7949C98.1619 21.7412 99.2071 22.2143 100.527 22.2143C102.398 22.2143 103.619 21.3781 104.191 19.7057H109.175C108.669 21.6861 107.668 23.2595 106.172 24.4258C104.675 25.592 102.805 26.1752 100.56 26.1752C98.8 26.1752 97.2377 25.7901 95.8734 25.0199C94.5091 24.2277 93.4418 23.1275 92.6716 21.7192C91.9015 20.2888 91.5164 18.6275 91.5164 16.735Z" fill="white"/>
<circle cx="19.8045" cy="2.6406" r="2.6406" fill="#2862FA"/>
</svg>
